<svg xmlns="http://www.w3.org/2000/svg" viewBox="0 0 135 135">
  <!-- Dark brand background with rounded corners -->
  <rect width="135" height="135" rx="28" fill="#12101C"/>
  <!-- Pulse mark — white paths from logo-mark-pulse-mono.svg -->
  <g transform="translate(0.894 1.315)">
    <!-- A-chevron top peak -->
    <path fill="#ffffff" d="m 73.852756,17.984858 c 0.270904,0.5095 24.90376,46.83716 25.174667,47.346661 0.270907,0.5095 -14.172353,0.5095 -14.44326,0 C 84.313256,64.822018 67.16968,31.573686 66.631129,31.566767 c -0.538552,-0.0069 -17.68213,33.255251 -17.953037,33.764752 -0.270907,0.5095 -14.714165,0.5095 -14.443261,0 0.270905,-0.509501 24.903763,-46.837161 25.174668,-47.346661 0.270904,-0.5095 14.172353,-0.5095 14.443257,0 z"/>
    <!-- Left descending arm -->
    <path fill="#ffffff" d="m 15.480212,100.60383 c 0.270907,-0.5095 12.419973,-23.358575 12.690877,-23.868075 -0.270904,0.5095 14.172354,0.5095 14.443261,0 -0.270907,0.5095 -12.419971,23.358575 -12.690878,23.868075 -0.270906,0.5095 -14.714166,0.5095 -14.44326,0 z"/>
    <!-- Right descending arm -->
    <path fill="#ffffff" d="m 90.647905,76.735755 c 0.270907,0.5095 14.714165,0.5095 14.443265,0 0.2709,0.5095 12.41998,23.358595 12.69088,23.868085 0.2709,0.50949 -14.17236,0.50949 -14.44327,-1e-5 -0.2709,-0.5095 -12.419968,-23.358575 -12.690875,-23.868075 z"/>
  </g>
</svg>
